<svg xmlns="http://www.w3.org/2000/svg" xmlns:xlink="http://www.w3.org/1999/xlink" width="204.684" height="62.138" viewBox="0 0 204.684 62.138">
  <defs>
    <clipPath id="clip-path">
      <rect width="204.684" height="62.138" fill="none"/>
    </clipPath>
    <linearGradient id="linear-gradient" x1="0.007" y1="0.496" x2="1.007" y2="0.496" gradientUnits="objectBoundingBox">
      <stop offset="0" stop-color="#00c5ff"/>
      <stop offset="1" stop-color="#a464ff"/>
    </linearGradient>
  </defs>
  <g id="Repeat_Grid_1" data-name="Repeat Grid 1" clip-path="url(#clip-path)">
    <g transform="translate(-120.023 -163.722)">
      <g id="Group_10" data-name="Group 10" transform="translate(120.023 163.722)">
        <path id="Path_14" data-name="Path 14" d="M22.24,280.938h0a15.273,15.273,0,0,1-.164-21.6l9.939-10.1a15.174,15.174,0,0,1,21.459-.162l11.911,11.585L54.669,271.542,42.827,260.025Z" transform="translate(-17.685 -244.714)" fill="url(#linear-gradient)"/>
        <path id="Path_15" data-name="Path 15" d="M149.4,489.5,137.49,477.917l10.716-10.88,11.842,11.517,20.587-20.913h0a15.272,15.272,0,0,1,.163,21.6l-9.939,10.1A15.173,15.173,0,0,1,149.4,489.5Z" transform="translate(-122.909 -431.726)" fill="url(#linear-gradient)"/>
      </g>
      <path id="Path_2" data-name="Path 2" d="M623.349,327.224h-1.139L612.535,312.5v14.166a.557.557,0,0,1-.557.557h-1.291a.557.557,0,0,1-.557-.557V309.856a1.266,1.266,0,0,1,1.266-1.266h1.139l9.675,14.75V309.147a.557.557,0,0,1,.557-.557h1.291a.557.557,0,0,1,.557.557v16.811A1.266,1.266,0,0,1,623.349,327.224Z" transform="translate(-411.825 -142.437)" fill="#646464"/>
      <path id="Path_3" data-name="Path 3" d="M783.176,310.546v6.37H789.7a.557.557,0,0,1,.557.557v.736a.557.557,0,0,1-.557.557h-6.526v6.5H790.5a.557.557,0,0,1,.557.557v.842a.557.557,0,0,1-.557.557H780.77V308.59H790.5a.557.557,0,0,1,.557.557v.842a.557.557,0,0,1-.557.557h-7.319Z" transform="translate(-564.369 -142.437)" fill="#646464"/>
      <path id="Path_4" data-name="Path 4" d="M911.088,322.864a4.775,4.775,0,0,1-1.93,1.85,6.547,6.547,0,0,1-3.2.714,7.675,7.675,0,0,1-3.29-.674,5.847,5.847,0,0,1-2.3-1.85,5.23,5.23,0,0,1-.991-2.683h.973a2.164,2.164,0,0,1,1.943,1.2c.057.115.12.23.19.343a3.605,3.605,0,0,0,1.321,1.243,4.123,4.123,0,0,0,2.075.489,3.288,3.288,0,0,0,2.432-.846,2.935,2.935,0,0,0,.846-2.167,2.79,2.79,0,0,0-.594-1.85,4.21,4.21,0,0,0-1.467-1.123,19.962,19.962,0,0,0-2.379-.886,23.892,23.892,0,0,1-2.841-1.1,4.854,4.854,0,0,1-1.824-1.546,4.512,4.512,0,0,1-.754-2.723,4.708,4.708,0,0,1,.7-2.564,4.591,4.591,0,0,1,2.009-1.719,7.245,7.245,0,0,1,3.08-.607,6.629,6.629,0,0,1,4.361,1.335,5.108,5.108,0,0,1,1.877,3.4H910.2a2.193,2.193,0,0,1-1.878-1.083,3.9,3.9,0,0,0-.723-.873,3.582,3.582,0,0,0-2.511-.846,3.436,3.436,0,0,0-2.326.754,2.66,2.66,0,0,0-.872,2.128,2.631,2.631,0,0,0,.569,1.758A3.955,3.955,0,0,0,903.874,314a22.611,22.611,0,0,0,2.326.859,23.488,23.488,0,0,1,2.895,1.11,4.889,4.889,0,0,1,1.863,1.6,4.784,4.784,0,0,1,.766,2.841A4.96,4.96,0,0,1,911.088,322.864Z" transform="translate(-670.34 -140.456)" fill="#646464"/>
      <path id="Path_5" data-name="Path 5" d="M1043.784,309.156V310a.557.557,0,0,1-.557.557h-4.7v16.121a.557.557,0,0,1-.557.557h-1.291a.557.557,0,0,1-.557-.557v-16.12h-4.7a.557.557,0,0,1-.557-.557v-.842a.557.557,0,0,1,.557-.557h11.811A.556.556,0,0,1,1043.784,309.156Z" transform="translate(-787.956 -142.446)" fill="#646464"/>
      <path id="Path_6" data-name="Path 6" d="M1181.166,307.6a8.649,8.649,0,0,1,3.265,3.4,10.815,10.815,0,0,1,0,9.86,8.657,8.657,0,0,1-3.265,3.4,9.054,9.054,0,0,1-4.665,1.216,9.193,9.193,0,0,1-4.691-1.216,8.591,8.591,0,0,1-3.291-3.4,10.816,10.816,0,0,1,0-9.86,8.612,8.612,0,0,1,3.291-3.4,9.2,9.2,0,0,1,4.691-1.216A9.057,9.057,0,0,1,1181.166,307.6Zm-8.115,1.917a6.124,6.124,0,0,0-2.379,2.538,9.128,9.128,0,0,0,0,7.731,6.106,6.106,0,0,0,2.379,2.551,6.724,6.724,0,0,0,3.45.886,6.588,6.588,0,0,0,3.423-.9,6.225,6.225,0,0,0,2.379-2.551,9.1,9.1,0,0,0,0-7.718,6.145,6.145,0,0,0-2.379-2.538,7.108,7.108,0,0,0-6.872,0Z" transform="translate(-910.02 -140.465)" fill="#646464"/>
      <path id="Path_7" data-name="Path 7" d="M1376.927,326.165l-4.186-6.553h-2.616v7.055a.557.557,0,0,1-.557.557h-1.291a.557.557,0,0,1-.557-.557V308.59h6.133a6.634,6.634,0,0,1,4.758,1.52,5.325,5.325,0,0,1,1.586,4.031,5.214,5.214,0,0,1-1.269,3.661,5.92,5.92,0,0,1-3.674,1.732l5.075,7.691h-1.464A2.3,2.3,0,0,1,1376.927,326.165Zm-6.8-8.3h3.515q4.1,0,4.1-3.595t-4.1-3.595h-3.515Z" transform="translate(-1089.104 -142.437)" fill="#646464"/>
      <path id="Path_8" data-name="Path 8" d="M614.069,545.93h9.887a.91.91,0,0,1,.91.91v1.245a.91.91,0,0,1-.91.91H610.14V519.46a.91.91,0,0,1,.91-.91h2.109a.91.91,0,0,1,.91.91Z" transform="translate(-411.835 -325.448)" fill="#646464"/>
      <path id="Path_9" data-name="Path 9" d="M720.789,519.46v28.625a.91.91,0,0,1-.91.91H717.77a.91.91,0,0,1-.91-.91V519.46a.91.91,0,0,1,.91-.91h2.109A.911.911,0,0,1,720.789,519.46Z" transform="translate(-499.811 -325.448)" fill="#646464"/>
      <path id="Path_10" data-name="Path 10" d="M766.825,520.407l8.622,24.22,8.745-24.233a2.809,2.809,0,0,1,2.64-1.855h2.3l-11.186,30.448h-4.967L761.84,518.542h2.339A2.808,2.808,0,0,1,766.825,520.407Z" transform="translate(-536.891 -325.44)" fill="#646464"/>
      <path id="Path_11" data-name="Path 11" d="M943.809,519.46v28.625a.91.91,0,0,1-.91.91H940.79a.91.91,0,0,1-.91-.91V519.46a.91.91,0,0,1,.91-.91H942.9A.911.911,0,0,1,943.809,519.46Z" transform="translate(-683.661 -325.448)" fill="#646464"/>
      <path id="Path_12" data-name="Path 12" d="M1019.738,549h-1.862l-15.807-24.055v23.145a.91.91,0,0,1-.91.91H999.05a.91.91,0,0,1-.91-.91V520.619a2.068,2.068,0,0,1,2.069-2.069h1.862l15.807,24.1V519.46a.91.91,0,0,1,.91-.91h2.109a.91.91,0,0,1,.91.91v27.468A2.067,2.067,0,0,1,1019.738,549Z" transform="translate(-731.688 -325.448)" fill="#646464"/>
      <path id="Path_13" data-name="Path 13" d="M1186.631,519.5a12.829,12.829,0,0,1,4.858,7.169h-1.718a3.968,3.968,0,0,1-3.328-1.751,9.447,9.447,0,0,0-2.707-2.7,10.535,10.535,0,0,0-5.982-1.684,10.791,10.791,0,0,0-5.571,1.447,10.12,10.12,0,0,0-3.866,4.124,13.4,13.4,0,0,0-1.4,6.305,13.583,13.583,0,0,0,1.424,6.414,10.086,10.086,0,0,0,3.952,4.147,11.481,11.481,0,0,0,5.808,1.447,10.976,10.976,0,0,0,5.139-1.21,9.944,9.944,0,0,0,3.822-3.52,11.957,11.957,0,0,0,1.792-5.42h-11.07a.892.892,0,0,1-.892-.892v-1.15a.892.892,0,0,1,.892-.892h14.4v3.629a15.135,15.135,0,0,1-2.246,6.565,13.473,13.473,0,0,1-5.011,4.665,14.668,14.668,0,0,1-7.169,1.728,15.143,15.143,0,0,1-7.774-1.965,13.681,13.681,0,0,1-5.248-5.485,18.216,18.216,0,0,1,0-16.109,13.8,13.8,0,0,1,5.248-5.506,14.933,14.933,0,0,1,7.73-1.986A14.667,14.667,0,0,1,1186.631,519.5Z" transform="translate(-867.469 -324.063)" fill="#646464"/>
    </g>
  </g>
</svg>
