<svg xmlns="http://www.w3.org/2000/svg" xmlns:xlink="http://www.w3.org/1999/xlink" width="190.093" height="61.245" viewBox="0 0 190.093 61.245">
  <defs>
    <linearGradient id="linear-gradient" x1="0.007" y1="0.496" x2="1.007" y2="0.496" gradientUnits="objectBoundingBox">
      <stop offset="0" stop-color="#00c5ff"/>
      <stop offset="1" stop-color="#a464ff"/>
    </linearGradient>
  </defs>
  <g id="LOGO_BRANDING_-_TOP" data-name="LOGO BRANDING - TOP" transform="translate(-74.023 -49.914)">
    <g id="Group_11" data-name="Group 11" transform="translate(74.023 53.45)">
      <g id="Group_10" data-name="Group 10" transform="translate(0 0)">
        <path id="Path_14" data-name="Path 14" d="M21.915,278.356h0a14.184,14.184,0,0,1-.153-20.057l9.231-9.382a14.092,14.092,0,0,1,19.929-.15l11.062,10.759-9.952,10.1-11-10.7Z" transform="translate(-17.685 -244.714)" fill="url(#linear-gradient)"/>
        <path id="Path_15" data-name="Path 15" d="M148.552,487.229,137.49,476.471l9.952-10.1,11,10.7,19.12-19.423h0a14.183,14.183,0,0,1,.151,20.057l-9.231,9.382A14.092,14.092,0,0,1,148.552,487.229Z" transform="translate(-123.949 -433.574)" fill="url(#linear-gradient)"/>
      </g>
    </g>
    <g id="Group_7" data-name="Group 7" transform="translate(146.725 49.914)">
      <path id="Path_2" data-name="Path 2" d="M622.406,325.9h-1.058l-8.985-13.673v13.156a.517.517,0,0,1-.517.517h-1.2a.517.517,0,0,1-.517-.517V309.766a1.176,1.176,0,0,1,1.176-1.176h1.058l8.985,13.7V309.107a.517.517,0,0,1,.517-.517h1.2a.517.517,0,0,1,.517.517V324.72A1.176,1.176,0,0,1,622.406,325.9Z" transform="translate(-610.13 -308.368)" fill="#fff"/>
      <path id="Path_3" data-name="Path 3" d="M783,310.407v5.916h6.061a.517.517,0,0,1,.517.517v.684a.517.517,0,0,1-.517.517H783v6.039h6.8a.517.517,0,0,1,.517.517v.782a.517.517,0,0,1-.517.517H780.77V308.59H789.8a.517.517,0,0,1,.517.517v.782a.517.517,0,0,1-.517.517H783Z" transform="translate(-763.964 -308.368)" fill="#fff"/>
      <path id="Path_4" data-name="Path 4" d="M910.248,321.688a4.435,4.435,0,0,1-1.792,1.718,6.08,6.08,0,0,1-2.97.663,7.127,7.127,0,0,1-3.056-.626,5.431,5.431,0,0,1-2.135-1.718,4.857,4.857,0,0,1-.92-2.492h.9a2.01,2.01,0,0,1,1.8,1.117c.053.107.112.214.177.318a3.349,3.349,0,0,0,1.227,1.154,3.83,3.83,0,0,0,1.927.454,3.054,3.054,0,0,0,2.258-.786,2.726,2.726,0,0,0,.786-2.013,2.592,2.592,0,0,0-.552-1.718,3.911,3.911,0,0,0-1.363-1.043,18.546,18.546,0,0,0-2.209-.823,22.182,22.182,0,0,1-2.639-1.019A4.507,4.507,0,0,1,900,313.44a4.19,4.19,0,0,1-.7-2.529,4.371,4.371,0,0,1,.65-2.381,4.264,4.264,0,0,1,1.866-1.6,6.728,6.728,0,0,1,2.86-.564,6.156,6.156,0,0,1,4.05,1.24,4.744,4.744,0,0,1,1.743,3.155h-1.045a2.037,2.037,0,0,1-1.744-1.005,3.621,3.621,0,0,0-.672-.811,3.326,3.326,0,0,0-2.332-.786,3.191,3.191,0,0,0-2.16.7,2.47,2.47,0,0,0-.81,1.977,2.444,2.444,0,0,0,.528,1.632,3.674,3.674,0,0,0,1.314.982,21,21,0,0,0,2.16.8,21.816,21.816,0,0,1,2.689,1.031,4.54,4.54,0,0,1,1.73,1.486,4.442,4.442,0,0,1,.712,2.639A4.606,4.606,0,0,1,910.248,321.688Z" transform="translate(-870.83 -306.37)" fill="#fff"/>
      <path id="Path_5" data-name="Path 5" d="M1042.863,309.116v.782a.517.517,0,0,1-.517.517h-4.368v14.972a.517.517,0,0,1-.517.517h-1.2a.517.517,0,0,1-.517-.517V310.416h-4.368a.517.517,0,0,1-.517-.517v-.782a.517.517,0,0,1,.517-.517h10.969A.516.516,0,0,1,1042.863,309.116Z" transform="translate(-989.441 -308.377)" fill="#fff"/>
      <path id="Path_6" data-name="Path 6" d="M1180.18,307.509a8.034,8.034,0,0,1,3.032,3.155,10.043,10.043,0,0,1,0,9.157,8.04,8.04,0,0,1-3.032,3.155,8.409,8.409,0,0,1-4.333,1.129,8.538,8.538,0,0,1-4.357-1.129,7.978,7.978,0,0,1-3.056-3.155,10.044,10.044,0,0,1,0-9.157,8,8,0,0,1,3.056-3.155,8.54,8.54,0,0,1,4.357-1.129A8.412,8.412,0,0,1,1180.18,307.509Zm-7.536,1.78a5.687,5.687,0,0,0-2.209,2.357,8.478,8.478,0,0,0,0,7.18,5.671,5.671,0,0,0,2.209,2.369,6.245,6.245,0,0,0,3.2.823,6.119,6.119,0,0,0,3.179-.835,5.781,5.781,0,0,0,2.209-2.369,8.45,8.45,0,0,0,0-7.168,5.707,5.707,0,0,0-2.209-2.357,6.6,6.6,0,0,0-6.382,0Z" transform="translate(-1112.531 -306.379)" fill="#fff"/>
      <path id="Path_7" data-name="Path 7" d="M1376.271,324.912l-3.888-6.086h-2.43v6.552a.517.517,0,0,1-.517.517h-1.2a.517.517,0,0,1-.517-.517V308.59h5.7a6.162,6.162,0,0,1,4.418,1.412,4.945,4.945,0,0,1,1.473,3.744,4.843,4.843,0,0,1-1.178,3.4,5.5,5.5,0,0,1-3.412,1.608l4.713,7.143h-1.36A2.136,2.136,0,0,1,1376.271,324.912Zm-6.318-7.705h3.265q3.805,0,3.8-3.338t-3.8-3.338h-3.265Z" transform="translate(-1293.135 -308.368)" fill="#fff"/>
    </g>
    <g id="Group_8" data-name="Group 8" transform="translate(146.725 77.676)">
      <path id="Path_8" data-name="Path 8" d="M613.789,543.978h9.182a.845.845,0,0,1,.845.845v1.156a.845.845,0,0,1-.845.845H610.14v-27.43a.845.845,0,0,1,.845-.845h1.959a.845.845,0,0,1,.845.845Z" transform="translate(-610.14 -518.276)" fill="#fff"/>
      <path id="Path_9" data-name="Path 9" d="M720.509,519.395V545.98a.845.845,0,0,1-.845.845H717.7a.845.845,0,0,1-.845-.845V519.395a.845.845,0,0,1,.845-.845h1.959A.846.846,0,0,1,720.509,519.395Z" transform="translate(-699.452 -518.276)" fill="#fff"/>
      <path id="Path_10" data-name="Path 10" d="M766.469,520.274l8.007,22.494,8.121-22.505a2.609,2.609,0,0,1,2.452-1.722h2.14L776.8,546.818h-4.613L761.84,518.542h2.173A2.608,2.608,0,0,1,766.469,520.274Z" transform="translate(-737.095 -518.268)" fill="#fff"/>
      <path id="Path_11" data-name="Path 11" d="M943.529,519.395V545.98a.845.845,0,0,1-.845.845h-1.959a.845.845,0,0,1-.845-.845V519.395a.845.845,0,0,1,.845-.845h1.959A.846.846,0,0,1,943.529,519.395Z" transform="translate(-886.094 -518.276)" fill="#fff"/>
      <path id="Path_12" data-name="Path 12" d="M1018.2,546.826h-1.729l-14.68-22.34v21.5a.845.845,0,0,1-.845.845h-1.959a.845.845,0,0,1-.845-.845v-25.51a1.921,1.921,0,0,1,1.922-1.922h1.729l14.68,22.381V519.395a.845.845,0,0,1,.845-.845h1.959a.845.845,0,0,1,.845.845V544.9A1.92,1.92,0,0,1,1018.2,546.826Z" transform="translate(-934.851 -518.276)" fill="#fff"/>
      <path id="Path_13" data-name="Path 13" d="M1184.936,519.31a11.914,11.914,0,0,1,4.512,6.658h-1.6a3.685,3.685,0,0,1-3.091-1.626,8.775,8.775,0,0,0-2.514-2.5,9.784,9.784,0,0,0-5.556-1.564,10.022,10.022,0,0,0-5.174,1.344,9.4,9.4,0,0,0-3.59,3.83,12.445,12.445,0,0,0-1.3,5.856,12.616,12.616,0,0,0,1.323,5.957,9.367,9.367,0,0,0,3.67,3.851,10.663,10.663,0,0,0,5.394,1.344,10.193,10.193,0,0,0,4.773-1.124,9.236,9.236,0,0,0,3.55-3.269A11.1,11.1,0,0,0,1187,533.03h-10.281a.829.829,0,0,1-.829-.829v-1.068a.829.829,0,0,1,.829-.829h13.369v3.37a14.055,14.055,0,0,1-2.086,6.1,12.512,12.512,0,0,1-4.654,4.332,13.622,13.622,0,0,1-6.658,1.605,14.064,14.064,0,0,1-7.22-1.825,12.705,12.705,0,0,1-4.874-5.094,16.917,16.917,0,0,1,0-14.961,12.819,12.819,0,0,1,4.874-5.114,13.868,13.868,0,0,1,7.179-1.845A13.621,13.621,0,0,1,1184.936,519.31Z" transform="translate(-1072.694 -516.87)" fill="#fff"/>
    </g>
  </g>
</svg>
