<svg xmlns="http://www.w3.org/2000/svg" width="27.062" height="24.107" viewBox="0 0 27.062 24.107">
  <path id="Path_1" data-name="Path 1" d="M26.389,3.307A1.428,1.428,0,0,0,24.864,2H21.583a1.475,1.475,0,0,0-1.5,1.093l-1.128,5.8a1.268,1.268,0,0,0,.823,1.386l2.36,1.011a15.829,15.829,0,0,1-9.306,7.981l-1.18-2.024a1.6,1.6,0,0,0-1.614-.706l-6.76.967A1.385,1.385,0,0,0,2,18.795v2.815a1.428,1.428,0,0,0,1.524,1.307H6.573c10.944,0,19.816-7.608,19.816-16.995Z" transform="translate(-2.259 1.692) rotate(-8)" fill="#fff"/>
</svg>
